<mxfile host="app.diagrams.net" modified="2022-04-13T02:28:44.173Z" agent="5.0 (X11; Linux x86_64) AppleWebKit/537.36 (KHTML, like Gecko) Chrome/96.0.4664.113 Safari/537.36" etag="w9NkOl_uERA7_5hoR9p9" version="17.4.3" type="github">
  <diagram id="1J9t7SzQ6MwqbeCWiBIZ" name="Pattern">
    <mxGraphModel dx="1108" dy="604" grid="1" gridSize="10" guides="1" tooltips="1" connect="1" arrows="1" fold="1" page="1" pageScale="1" pageWidth="1700" pageHeight="1100" math="0" shadow="0">
      <root>
        <mxCell id="0" />
        <mxCell id="1" parent="0" />
        <mxCell id="m073u-m4tjFikM66aG8S-1" value="API Versioning" style="rounded=0;whiteSpace=wrap;html=1;fontFamily=Comfortaa;fontSource=https%3A%2F%2Ffonts.googleapis.com%2Fcss%3Ffamily%3DComfortaa;fontSize=25;fontStyle=0" vertex="1" parent="1">
          <mxGeometry x="220" y="300" width="240" height="90" as="geometry" />
        </mxCell>
        <mxCell id="m073u-m4tjFikM66aG8S-2" value="Pagination" style="rounded=0;whiteSpace=wrap;html=1;fontFamily=Comfortaa;fontSource=https%3A%2F%2Ffonts.googleapis.com%2Fcss%3Ffamily%3DComfortaa;fontSize=25;fontStyle=0" vertex="1" parent="1">
          <mxGeometry x="510" y="300" width="240" height="90" as="geometry" />
        </mxCell>
      </root>
    </mxGraphModel>
  </diagram>
</mxfile>
